<svg xmlns="http://www.w3.org/2000/svg" viewBox="0 0 200 50">
  <defs>
    <linearGradient id="snowGrad" x1="0%" y1="0%" x2="100%" y2="0%">
      <stop offset="0%" style="stop-color:#29B5E8"/>
      <stop offset="100%" style="stop-color:#29B5E8"/>
    </linearGradient>
  </defs>
  <g fill="#29B5E8">
    <polygon points="25,5 28,12 35,12 29,17 31,25 25,21 19,25 21,17 15,12 22,12"/>
    <rect x="24" y="26" width="2" height="8"/>
    <rect x="24" y="36" width="2" height="8"/>
    <rect x="14" y="16" width="2" height="6" transform="rotate(-60 15 19)"/>
    <rect x="34" y="16" width="2" height="6" transform="rotate(60 35 19)"/>
    <rect x="14" y="28" width="2" height="6" transform="rotate(-120 15 31)"/>
    <rect x="34" y="28" width="2" height="6" transform="rotate(120 35 31)"/>
  </g>
  <text x="50" y="32" font-family="Plus Jakarta Sans, -apple-system, BlinkMacSystemFont, sans-serif" font-size="22" font-weight="600" fill="white">snowflake</text>
</svg>